<svg viewBox="0 0 378 96" height="96" width="378" style="width:378px;height:96px;position:absolute;top:50%;left:50%;transform:translate(-50%,-50%) scale(1);z-index:0;cursor:pointer;overflow:visible" xmlns="http://www.w3.org/2000/svg" version="1.1" xmlns:xlink="http://www.w3.org/1999/xlink" transform="matrix(1.8369701987210297e-16,1,1,-1.8369701987210297e-16,0,0)"><g xmlns="http://www.w3.org/2000/svg" fill="none" stroke="#00adb5"><path style="stroke-width:2;stroke-linejoin:round;stroke-miterlimit:10" d="m16 39.2-5-3.1 28.1-11.5L26 44.8l-4.9-2.9" transform="translate(-4.005 -4.005)scale(2.00229)"></path><path style="stroke-width:2;stroke-linejoin:round;stroke-miterlimit:10" d="M16 48v-8.8l11.4-4.9z" transform="translate(-4.00 -4.00)scale(2)"></path><path d="M38 33h2c4.6 0 8-3.1 8-7.7 0-4.2-3.1-7.7-7.2-8.1.6-1.5 1-3.2.9-5C41.4 6.6 36.7 2 31.2 2c-5.1 0-9.4 3.6-10.5 8.5-1.6-2-4.1-3.1-6.8-2.9-3 .3-5.5 2.4-6.5 5.3-.6 1.7-.6 3.3-.2 4.7-3 1.1-5.2 4.1-5.2 7.6 0 4.7 3.4 7.7 8 7.7h1" style="stroke-width:2;stroke-miterlimit:10" transform="translate(-4.005 -4.005)scale(2)"></path></g><path d="M139.995 63.58a27.716 27.716 0 0 0 27.857-27.856c0-15.434-12.496-27.725-27.857-27.725-15.502 0-27.998 12.287-27.998 27.725 0 15.63 12.496 27.857 27.998 27.857m0-7.445c-11.062 0-20.28-9.217-20.28-20.412 0-11.063 9.218-20.28 20.28-20.28 10.994 0 20.211 9.217 20.211 20.28 0 11.199-9.217 20.412-20.21 20.412m59.948-25.126c.753.48.958.886.479 1.64l-2.8 4.097c-.342.475-.818.612-1.434.475-1.434-.685-2.659-1.297-4.915-1.297s-5.8.959-7.714 5.189V62.01c0 .612-.411 1.087-1.028 1.087h-5.394c-.612 0-1.023-.475-1.023-1.087V30.39c0-.613.48-1.088 1.023-1.088h3.755c1.64 0 2.663 1.704 2.663 2.933v.48c2.393-2.188 5.26-3.69 9.015-3.69 3.481 0 6.075 1.095 7.373 1.981m33.799-22.531c1.571 0 2.594 1.027 2.594 2.457v51.082c0 .612-.475 1.087-1.023 1.087h-2.8c-1.365 0-3.207-.886-3.545-2.521a16.1 16.1 0 0 1-9.427 3c-9.628 0-16.045-7.782-16.045-17.753 0-10.24 7.851-16.799 15.84-16.799 4.23 0 7.235 1.301 9.628 2.736V14.352c0-2.119-.41-3.21-.616-4.44-.137-.748.137-1.433.753-1.433zm-22.939 37.348c0 6.76 4.367 10.857 9.967 10.857 3.344 0 6.01-1.088 8.194-2.32V38.729c-2.526-1.64-5.326-2.8-8.468-2.8-4.298 0-9.693 2.937-9.693 9.898m61.315 3.142c2.457 0 4.161-1.232 4.161-4.097 0-8.4-6.486-16.05-16.452-16.05-9.492 0-16.936 7.514-16.936 17.348 0 10.24 7.783 17.274 17.342 17.274 6.08 0 10.857-2.458 13.794-6.422.411-.543.274-.954-.137-1.498l-1.297-1.708c-.544-.685-1.088-.617-1.773-.206-2.187 1.773-5.8 3.28-9.765 3.28-5.6 0-9.56-3.417-10.313-7.92zm-21.372-5.805c.27-3.279 3.344-7.513 8.944-7.513 5.668 0 8.6 4.303 8.806 7.513zM290.28 8.48h-5.257c-.685 0-1.092.48-1.092 1.091v50.8c0 1.571.955 2.731 2.659 2.731h3.69c.685 0 1.092-.41 1.092-1.16V9.571a1.09 1.09 0 0 0-1.088-1.092zm41.993 20.827c.818 0 1.23.544.818 1.293l-13.515 27.793c-6.76 14.06-12.702 22.19-15.913 25.331-.612.544-1.366.27-2.047-.41l-2.936-2.937c-.75-.685-.613-1.366.068-2.184 4.166-4.713 9.56-12.496 13.04-20.348l-14.2-27.313c-.343-.685 0-1.229.75-1.229h6.01c.612 0 .954.274 1.228.753l10.035 20.481 9.56-20.412c.274-.548.685-.822 1.297-.822zm37.417 32.087c.48.754 0 1.708-.753 1.708h-5.801c-.616 0-.886-.338-1.233-.817l-7.783-11.131-7.715 11.13c-.41.548-.616.818-1.297.818h-5.668c-.75 0-1.229-1.023-.75-1.704l10.926-15.095-10.998-15.296c-.475-.685 0-1.708.822-1.708h5.668c.617 0 .955.274 1.297.822l7.715 11.264 7.787-11.264c.339-.48.613-.822 1.297-.822h5.801c.754 0 1.165.959.685 1.708l-11.062 15.296z" fill="#222"></path></svg>
