<svg viewBox="0 0 92.105 92.105" height="92.105" width="92.105" style="width:92.105px;height:92.1053px;position:absolute;top:50%;left:50%;transform:translate(-50%,-50%) scale(.613283);z-index:0;cursor:pointer;overflow:visible" xmlns="http://www.w3.org/2000/svg" transform="matrix(0 1 1 0 0 0)"><g xmlns="http://www.w3.org/2000/svg" fill="none" stroke="#00adb5"><path style="stroke-width:2;stroke-linejoin:round;stroke-miterlimit:10" d="m16 39.2-5-3.1 28.1-11.5L26 44.8l-4.9-2.9" transform="translate(-4.005 -4.005)scale(2.00229)"/><path style="stroke-width:2;stroke-linejoin:round;stroke-miterlimit:10" d="M16 48v-8.8l11.4-4.9z" transform="translate(-4.005 -4.005)scale(2.00229)"/><path d="M38 33h2c4.6 0 8-3.1 8-7.7 0-4.2-3.1-7.7-7.2-8.1.6-1.5 1-3.2.9-5C41.4 6.6 36.7 2 31.2 2c-5.1 0-9.4 3.6-10.5 8.5-1.6-2-4.1-3.1-6.8-2.9-3 .3-5.5 2.4-6.5 5.3-.6 1.7-.6 3.3-.2 4.7-3 1.1-5.2 4.1-5.2 7.6 0 4.7 3.4 7.7 8 7.7h1" style="stroke-width:2;stroke-miterlimit:10" transform="translate(-4.005 -4.005)scale(2.00229)"/></g></svg>
